G75*
%MOIN*%
%OFA0B0*%
%FSLAX25Y25*%
%IPPOS*%
%LPD*%
%AMOC8*
5,1,8,0,0,1.08239X$1,22.5*
%
%ADD10C,0.00000*%
D10*
X0018917Y0001200D02*
X0268523Y0001200D01*
X0286239Y0018917D01*
X0286239Y0061043D01*
X0001200Y0061043D01*
X0001200Y0018917D01*
X0018917Y0001200D01*
X0005137Y0050806D02*
X0005139Y0050964D01*
X0005145Y0051122D01*
X0005155Y0051280D01*
X0005169Y0051438D01*
X0005187Y0051595D01*
X0005208Y0051752D01*
X0005234Y0051908D01*
X0005264Y0052064D01*
X0005297Y0052219D01*
X0005335Y0052372D01*
X0005376Y0052525D01*
X0005421Y0052677D01*
X0005470Y0052828D01*
X0005523Y0052977D01*
X0005579Y0053125D01*
X0005639Y0053271D01*
X0005703Y0053416D01*
X0005771Y0053559D01*
X0005842Y0053701D01*
X0005916Y0053841D01*
X0005994Y0053978D01*
X0006076Y0054114D01*
X0006160Y0054248D01*
X0006249Y0054379D01*
X0006340Y0054508D01*
X0006435Y0054635D01*
X0006532Y0054760D01*
X0006633Y0054882D01*
X0006737Y0055001D01*
X0006844Y0055118D01*
X0006954Y0055232D01*
X0007067Y0055343D01*
X0007182Y0055452D01*
X0007300Y0055557D01*
X0007421Y0055659D01*
X0007544Y0055759D01*
X0007670Y0055855D01*
X0007798Y0055948D01*
X0007928Y0056038D01*
X0008061Y0056124D01*
X0008196Y0056208D01*
X0008332Y0056287D01*
X0008471Y0056364D01*
X0008612Y0056436D01*
X0008754Y0056506D01*
X0008898Y0056571D01*
X0009044Y0056633D01*
X0009191Y0056691D01*
X0009340Y0056746D01*
X0009490Y0056797D01*
X0009641Y0056844D01*
X0009793Y0056887D01*
X0009946Y0056926D01*
X0010101Y0056962D01*
X0010256Y0056993D01*
X0010412Y0057021D01*
X0010568Y0057045D01*
X0010725Y0057065D01*
X0010883Y0057081D01*
X0011040Y0057093D01*
X0011199Y0057101D01*
X0011357Y0057105D01*
X0011515Y0057105D01*
X0011673Y0057101D01*
X0011832Y0057093D01*
X0011989Y0057081D01*
X0012147Y0057065D01*
X0012304Y0057045D01*
X0012460Y0057021D01*
X0012616Y0056993D01*
X0012771Y0056962D01*
X0012926Y0056926D01*
X0013079Y0056887D01*
X0013231Y0056844D01*
X0013382Y0056797D01*
X0013532Y0056746D01*
X0013681Y0056691D01*
X0013828Y0056633D01*
X0013974Y0056571D01*
X0014118Y0056506D01*
X0014260Y0056436D01*
X0014401Y0056364D01*
X0014540Y0056287D01*
X0014676Y0056208D01*
X0014811Y0056124D01*
X0014944Y0056038D01*
X0015074Y0055948D01*
X0015202Y0055855D01*
X0015328Y0055759D01*
X0015451Y0055659D01*
X0015572Y0055557D01*
X0015690Y0055452D01*
X0015805Y0055343D01*
X0015918Y0055232D01*
X0016028Y0055118D01*
X0016135Y0055001D01*
X0016239Y0054882D01*
X0016340Y0054760D01*
X0016437Y0054635D01*
X0016532Y0054508D01*
X0016623Y0054379D01*
X0016712Y0054248D01*
X0016796Y0054114D01*
X0016878Y0053978D01*
X0016956Y0053841D01*
X0017030Y0053701D01*
X0017101Y0053559D01*
X0017169Y0053416D01*
X0017233Y0053271D01*
X0017293Y0053125D01*
X0017349Y0052977D01*
X0017402Y0052828D01*
X0017451Y0052677D01*
X0017496Y0052525D01*
X0017537Y0052372D01*
X0017575Y0052219D01*
X0017608Y0052064D01*
X0017638Y0051908D01*
X0017664Y0051752D01*
X0017685Y0051595D01*
X0017703Y0051438D01*
X0017717Y0051280D01*
X0017727Y0051122D01*
X0017733Y0050964D01*
X0017735Y0050806D01*
X0017733Y0050648D01*
X0017727Y0050490D01*
X0017717Y0050332D01*
X0017703Y0050174D01*
X0017685Y0050017D01*
X0017664Y0049860D01*
X0017638Y0049704D01*
X0017608Y0049548D01*
X0017575Y0049393D01*
X0017537Y0049240D01*
X0017496Y0049087D01*
X0017451Y0048935D01*
X0017402Y0048784D01*
X0017349Y0048635D01*
X0017293Y0048487D01*
X0017233Y0048341D01*
X0017169Y0048196D01*
X0017101Y0048053D01*
X0017030Y0047911D01*
X0016956Y0047771D01*
X0016878Y0047634D01*
X0016796Y0047498D01*
X0016712Y0047364D01*
X0016623Y0047233D01*
X0016532Y0047104D01*
X0016437Y0046977D01*
X0016340Y0046852D01*
X0016239Y0046730D01*
X0016135Y0046611D01*
X0016028Y0046494D01*
X0015918Y0046380D01*
X0015805Y0046269D01*
X0015690Y0046160D01*
X0015572Y0046055D01*
X0015451Y0045953D01*
X0015328Y0045853D01*
X0015202Y0045757D01*
X0015074Y0045664D01*
X0014944Y0045574D01*
X0014811Y0045488D01*
X0014676Y0045404D01*
X0014540Y0045325D01*
X0014401Y0045248D01*
X0014260Y0045176D01*
X0014118Y0045106D01*
X0013974Y0045041D01*
X0013828Y0044979D01*
X0013681Y0044921D01*
X0013532Y0044866D01*
X0013382Y0044815D01*
X0013231Y0044768D01*
X0013079Y0044725D01*
X0012926Y0044686D01*
X0012771Y0044650D01*
X0012616Y0044619D01*
X0012460Y0044591D01*
X0012304Y0044567D01*
X0012147Y0044547D01*
X0011989Y0044531D01*
X0011832Y0044519D01*
X0011673Y0044511D01*
X0011515Y0044507D01*
X0011357Y0044507D01*
X0011199Y0044511D01*
X0011040Y0044519D01*
X0010883Y0044531D01*
X0010725Y0044547D01*
X0010568Y0044567D01*
X0010412Y0044591D01*
X0010256Y0044619D01*
X0010101Y0044650D01*
X0009946Y0044686D01*
X0009793Y0044725D01*
X0009641Y0044768D01*
X0009490Y0044815D01*
X0009340Y0044866D01*
X0009191Y0044921D01*
X0009044Y0044979D01*
X0008898Y0045041D01*
X0008754Y0045106D01*
X0008612Y0045176D01*
X0008471Y0045248D01*
X0008332Y0045325D01*
X0008196Y0045404D01*
X0008061Y0045488D01*
X0007928Y0045574D01*
X0007798Y0045664D01*
X0007670Y0045757D01*
X0007544Y0045853D01*
X0007421Y0045953D01*
X0007300Y0046055D01*
X0007182Y0046160D01*
X0007067Y0046269D01*
X0006954Y0046380D01*
X0006844Y0046494D01*
X0006737Y0046611D01*
X0006633Y0046730D01*
X0006532Y0046852D01*
X0006435Y0046977D01*
X0006340Y0047104D01*
X0006249Y0047233D01*
X0006160Y0047364D01*
X0006076Y0047498D01*
X0005994Y0047634D01*
X0005916Y0047771D01*
X0005842Y0047911D01*
X0005771Y0048053D01*
X0005703Y0048196D01*
X0005639Y0048341D01*
X0005579Y0048487D01*
X0005523Y0048635D01*
X0005470Y0048784D01*
X0005421Y0048935D01*
X0005376Y0049087D01*
X0005335Y0049240D01*
X0005297Y0049393D01*
X0005264Y0049548D01*
X0005234Y0049704D01*
X0005208Y0049860D01*
X0005187Y0050017D01*
X0005169Y0050174D01*
X0005155Y0050332D01*
X0005145Y0050490D01*
X0005139Y0050648D01*
X0005137Y0050806D01*
X0269704Y0050806D02*
X0269706Y0050964D01*
X0269712Y0051122D01*
X0269722Y0051280D01*
X0269736Y0051438D01*
X0269754Y0051595D01*
X0269775Y0051752D01*
X0269801Y0051908D01*
X0269831Y0052064D01*
X0269864Y0052219D01*
X0269902Y0052372D01*
X0269943Y0052525D01*
X0269988Y0052677D01*
X0270037Y0052828D01*
X0270090Y0052977D01*
X0270146Y0053125D01*
X0270206Y0053271D01*
X0270270Y0053416D01*
X0270338Y0053559D01*
X0270409Y0053701D01*
X0270483Y0053841D01*
X0270561Y0053978D01*
X0270643Y0054114D01*
X0270727Y0054248D01*
X0270816Y0054379D01*
X0270907Y0054508D01*
X0271002Y0054635D01*
X0271099Y0054760D01*
X0271200Y0054882D01*
X0271304Y0055001D01*
X0271411Y0055118D01*
X0271521Y0055232D01*
X0271634Y0055343D01*
X0271749Y0055452D01*
X0271867Y0055557D01*
X0271988Y0055659D01*
X0272111Y0055759D01*
X0272237Y0055855D01*
X0272365Y0055948D01*
X0272495Y0056038D01*
X0272628Y0056124D01*
X0272763Y0056208D01*
X0272899Y0056287D01*
X0273038Y0056364D01*
X0273179Y0056436D01*
X0273321Y0056506D01*
X0273465Y0056571D01*
X0273611Y0056633D01*
X0273758Y0056691D01*
X0273907Y0056746D01*
X0274057Y0056797D01*
X0274208Y0056844D01*
X0274360Y0056887D01*
X0274513Y0056926D01*
X0274668Y0056962D01*
X0274823Y0056993D01*
X0274979Y0057021D01*
X0275135Y0057045D01*
X0275292Y0057065D01*
X0275450Y0057081D01*
X0275607Y0057093D01*
X0275766Y0057101D01*
X0275924Y0057105D01*
X0276082Y0057105D01*
X0276240Y0057101D01*
X0276399Y0057093D01*
X0276556Y0057081D01*
X0276714Y0057065D01*
X0276871Y0057045D01*
X0277027Y0057021D01*
X0277183Y0056993D01*
X0277338Y0056962D01*
X0277493Y0056926D01*
X0277646Y0056887D01*
X0277798Y0056844D01*
X0277949Y0056797D01*
X0278099Y0056746D01*
X0278248Y0056691D01*
X0278395Y0056633D01*
X0278541Y0056571D01*
X0278685Y0056506D01*
X0278827Y0056436D01*
X0278968Y0056364D01*
X0279107Y0056287D01*
X0279243Y0056208D01*
X0279378Y0056124D01*
X0279511Y0056038D01*
X0279641Y0055948D01*
X0279769Y0055855D01*
X0279895Y0055759D01*
X0280018Y0055659D01*
X0280139Y0055557D01*
X0280257Y0055452D01*
X0280372Y0055343D01*
X0280485Y0055232D01*
X0280595Y0055118D01*
X0280702Y0055001D01*
X0280806Y0054882D01*
X0280907Y0054760D01*
X0281004Y0054635D01*
X0281099Y0054508D01*
X0281190Y0054379D01*
X0281279Y0054248D01*
X0281363Y0054114D01*
X0281445Y0053978D01*
X0281523Y0053841D01*
X0281597Y0053701D01*
X0281668Y0053559D01*
X0281736Y0053416D01*
X0281800Y0053271D01*
X0281860Y0053125D01*
X0281916Y0052977D01*
X0281969Y0052828D01*
X0282018Y0052677D01*
X0282063Y0052525D01*
X0282104Y0052372D01*
X0282142Y0052219D01*
X0282175Y0052064D01*
X0282205Y0051908D01*
X0282231Y0051752D01*
X0282252Y0051595D01*
X0282270Y0051438D01*
X0282284Y0051280D01*
X0282294Y0051122D01*
X0282300Y0050964D01*
X0282302Y0050806D01*
X0282300Y0050648D01*
X0282294Y0050490D01*
X0282284Y0050332D01*
X0282270Y0050174D01*
X0282252Y0050017D01*
X0282231Y0049860D01*
X0282205Y0049704D01*
X0282175Y0049548D01*
X0282142Y0049393D01*
X0282104Y0049240D01*
X0282063Y0049087D01*
X0282018Y0048935D01*
X0281969Y0048784D01*
X0281916Y0048635D01*
X0281860Y0048487D01*
X0281800Y0048341D01*
X0281736Y0048196D01*
X0281668Y0048053D01*
X0281597Y0047911D01*
X0281523Y0047771D01*
X0281445Y0047634D01*
X0281363Y0047498D01*
X0281279Y0047364D01*
X0281190Y0047233D01*
X0281099Y0047104D01*
X0281004Y0046977D01*
X0280907Y0046852D01*
X0280806Y0046730D01*
X0280702Y0046611D01*
X0280595Y0046494D01*
X0280485Y0046380D01*
X0280372Y0046269D01*
X0280257Y0046160D01*
X0280139Y0046055D01*
X0280018Y0045953D01*
X0279895Y0045853D01*
X0279769Y0045757D01*
X0279641Y0045664D01*
X0279511Y0045574D01*
X0279378Y0045488D01*
X0279243Y0045404D01*
X0279107Y0045325D01*
X0278968Y0045248D01*
X0278827Y0045176D01*
X0278685Y0045106D01*
X0278541Y0045041D01*
X0278395Y0044979D01*
X0278248Y0044921D01*
X0278099Y0044866D01*
X0277949Y0044815D01*
X0277798Y0044768D01*
X0277646Y0044725D01*
X0277493Y0044686D01*
X0277338Y0044650D01*
X0277183Y0044619D01*
X0277027Y0044591D01*
X0276871Y0044567D01*
X0276714Y0044547D01*
X0276556Y0044531D01*
X0276399Y0044519D01*
X0276240Y0044511D01*
X0276082Y0044507D01*
X0275924Y0044507D01*
X0275766Y0044511D01*
X0275607Y0044519D01*
X0275450Y0044531D01*
X0275292Y0044547D01*
X0275135Y0044567D01*
X0274979Y0044591D01*
X0274823Y0044619D01*
X0274668Y0044650D01*
X0274513Y0044686D01*
X0274360Y0044725D01*
X0274208Y0044768D01*
X0274057Y0044815D01*
X0273907Y0044866D01*
X0273758Y0044921D01*
X0273611Y0044979D01*
X0273465Y0045041D01*
X0273321Y0045106D01*
X0273179Y0045176D01*
X0273038Y0045248D01*
X0272899Y0045325D01*
X0272763Y0045404D01*
X0272628Y0045488D01*
X0272495Y0045574D01*
X0272365Y0045664D01*
X0272237Y0045757D01*
X0272111Y0045853D01*
X0271988Y0045953D01*
X0271867Y0046055D01*
X0271749Y0046160D01*
X0271634Y0046269D01*
X0271521Y0046380D01*
X0271411Y0046494D01*
X0271304Y0046611D01*
X0271200Y0046730D01*
X0271099Y0046852D01*
X0271002Y0046977D01*
X0270907Y0047104D01*
X0270816Y0047233D01*
X0270727Y0047364D01*
X0270643Y0047498D01*
X0270561Y0047634D01*
X0270483Y0047771D01*
X0270409Y0047911D01*
X0270338Y0048053D01*
X0270270Y0048196D01*
X0270206Y0048341D01*
X0270146Y0048487D01*
X0270090Y0048635D01*
X0270037Y0048784D01*
X0269988Y0048935D01*
X0269943Y0049087D01*
X0269902Y0049240D01*
X0269864Y0049393D01*
X0269831Y0049548D01*
X0269801Y0049704D01*
X0269775Y0049860D01*
X0269754Y0050017D01*
X0269736Y0050174D01*
X0269722Y0050332D01*
X0269712Y0050490D01*
X0269706Y0050648D01*
X0269704Y0050806D01*
M02*
