G75*
%MOIN*%
%OFA0B0*%
%FSLAX25Y25*%
%IPPOS*%
%LPD*%
%AMOC8*
5,1,8,0,0,1.08239X$1,22.5*
%
%ADD10C,0.00000*%
%ADD11C,0.00984*%
%ADD12R,0.08661X0.16535*%
%ADD13C,0.00709*%
%ADD14R,0.21260X0.11417*%
%ADD15C,0.01575*%
%ADD16R,0.02835X0.05000*%
%ADD17R,0.15748X0.19685*%
D10*
X0013611Y0003769D02*
X0151406Y0003769D01*
X0145107Y0013611D02*
X0145109Y0013769D01*
X0145115Y0013927D01*
X0145125Y0014085D01*
X0145139Y0014243D01*
X0145157Y0014400D01*
X0145178Y0014557D01*
X0145204Y0014713D01*
X0145234Y0014869D01*
X0145267Y0015024D01*
X0145305Y0015177D01*
X0145346Y0015330D01*
X0145391Y0015482D01*
X0145440Y0015633D01*
X0145493Y0015782D01*
X0145549Y0015930D01*
X0145609Y0016076D01*
X0145673Y0016221D01*
X0145741Y0016364D01*
X0145812Y0016506D01*
X0145886Y0016646D01*
X0145964Y0016783D01*
X0146046Y0016919D01*
X0146130Y0017053D01*
X0146219Y0017184D01*
X0146310Y0017313D01*
X0146405Y0017440D01*
X0146502Y0017565D01*
X0146603Y0017687D01*
X0146707Y0017806D01*
X0146814Y0017923D01*
X0146924Y0018037D01*
X0147037Y0018148D01*
X0147152Y0018257D01*
X0147270Y0018362D01*
X0147391Y0018464D01*
X0147514Y0018564D01*
X0147640Y0018660D01*
X0147768Y0018753D01*
X0147898Y0018843D01*
X0148031Y0018929D01*
X0148166Y0019013D01*
X0148302Y0019092D01*
X0148441Y0019169D01*
X0148582Y0019241D01*
X0148724Y0019311D01*
X0148868Y0019376D01*
X0149014Y0019438D01*
X0149161Y0019496D01*
X0149310Y0019551D01*
X0149460Y0019602D01*
X0149611Y0019649D01*
X0149763Y0019692D01*
X0149916Y0019731D01*
X0150071Y0019767D01*
X0150226Y0019798D01*
X0150382Y0019826D01*
X0150538Y0019850D01*
X0150695Y0019870D01*
X0150853Y0019886D01*
X0151010Y0019898D01*
X0151169Y0019906D01*
X0151327Y0019910D01*
X0151485Y0019910D01*
X0151643Y0019906D01*
X0151802Y0019898D01*
X0151959Y0019886D01*
X0152117Y0019870D01*
X0152274Y0019850D01*
X0152430Y0019826D01*
X0152586Y0019798D01*
X0152741Y0019767D01*
X0152896Y0019731D01*
X0153049Y0019692D01*
X0153201Y0019649D01*
X0153352Y0019602D01*
X0153502Y0019551D01*
X0153651Y0019496D01*
X0153798Y0019438D01*
X0153944Y0019376D01*
X0154088Y0019311D01*
X0154230Y0019241D01*
X0154371Y0019169D01*
X0154510Y0019092D01*
X0154646Y0019013D01*
X0154781Y0018929D01*
X0154914Y0018843D01*
X0155044Y0018753D01*
X0155172Y0018660D01*
X0155298Y0018564D01*
X0155421Y0018464D01*
X0155542Y0018362D01*
X0155660Y0018257D01*
X0155775Y0018148D01*
X0155888Y0018037D01*
X0155998Y0017923D01*
X0156105Y0017806D01*
X0156209Y0017687D01*
X0156310Y0017565D01*
X0156407Y0017440D01*
X0156502Y0017313D01*
X0156593Y0017184D01*
X0156682Y0017053D01*
X0156766Y0016919D01*
X0156848Y0016783D01*
X0156926Y0016646D01*
X0157000Y0016506D01*
X0157071Y0016364D01*
X0157139Y0016221D01*
X0157203Y0016076D01*
X0157263Y0015930D01*
X0157319Y0015782D01*
X0157372Y0015633D01*
X0157421Y0015482D01*
X0157466Y0015330D01*
X0157507Y0015177D01*
X0157545Y0015024D01*
X0157578Y0014869D01*
X0157608Y0014713D01*
X0157634Y0014557D01*
X0157655Y0014400D01*
X0157673Y0014243D01*
X0157687Y0014085D01*
X0157697Y0013927D01*
X0157703Y0013769D01*
X0157705Y0013611D01*
X0157703Y0013453D01*
X0157697Y0013295D01*
X0157687Y0013137D01*
X0157673Y0012979D01*
X0157655Y0012822D01*
X0157634Y0012665D01*
X0157608Y0012509D01*
X0157578Y0012353D01*
X0157545Y0012198D01*
X0157507Y0012045D01*
X0157466Y0011892D01*
X0157421Y0011740D01*
X0157372Y0011589D01*
X0157319Y0011440D01*
X0157263Y0011292D01*
X0157203Y0011146D01*
X0157139Y0011001D01*
X0157071Y0010858D01*
X0157000Y0010716D01*
X0156926Y0010576D01*
X0156848Y0010439D01*
X0156766Y0010303D01*
X0156682Y0010169D01*
X0156593Y0010038D01*
X0156502Y0009909D01*
X0156407Y0009782D01*
X0156310Y0009657D01*
X0156209Y0009535D01*
X0156105Y0009416D01*
X0155998Y0009299D01*
X0155888Y0009185D01*
X0155775Y0009074D01*
X0155660Y0008965D01*
X0155542Y0008860D01*
X0155421Y0008758D01*
X0155298Y0008658D01*
X0155172Y0008562D01*
X0155044Y0008469D01*
X0154914Y0008379D01*
X0154781Y0008293D01*
X0154646Y0008209D01*
X0154510Y0008130D01*
X0154371Y0008053D01*
X0154230Y0007981D01*
X0154088Y0007911D01*
X0153944Y0007846D01*
X0153798Y0007784D01*
X0153651Y0007726D01*
X0153502Y0007671D01*
X0153352Y0007620D01*
X0153201Y0007573D01*
X0153049Y0007530D01*
X0152896Y0007491D01*
X0152741Y0007455D01*
X0152586Y0007424D01*
X0152430Y0007396D01*
X0152274Y0007372D01*
X0152117Y0007352D01*
X0151959Y0007336D01*
X0151802Y0007324D01*
X0151643Y0007316D01*
X0151485Y0007312D01*
X0151327Y0007312D01*
X0151169Y0007316D01*
X0151010Y0007324D01*
X0150853Y0007336D01*
X0150695Y0007352D01*
X0150538Y0007372D01*
X0150382Y0007396D01*
X0150226Y0007424D01*
X0150071Y0007455D01*
X0149916Y0007491D01*
X0149763Y0007530D01*
X0149611Y0007573D01*
X0149460Y0007620D01*
X0149310Y0007671D01*
X0149161Y0007726D01*
X0149014Y0007784D01*
X0148868Y0007846D01*
X0148724Y0007911D01*
X0148582Y0007981D01*
X0148441Y0008053D01*
X0148302Y0008130D01*
X0148166Y0008209D01*
X0148031Y0008293D01*
X0147898Y0008379D01*
X0147768Y0008469D01*
X0147640Y0008562D01*
X0147514Y0008658D01*
X0147391Y0008758D01*
X0147270Y0008860D01*
X0147152Y0008965D01*
X0147037Y0009074D01*
X0146924Y0009185D01*
X0146814Y0009299D01*
X0146707Y0009416D01*
X0146603Y0009535D01*
X0146502Y0009657D01*
X0146405Y0009782D01*
X0146310Y0009909D01*
X0146219Y0010038D01*
X0146130Y0010169D01*
X0146046Y0010303D01*
X0145964Y0010439D01*
X0145886Y0010576D01*
X0145812Y0010716D01*
X0145741Y0010858D01*
X0145673Y0011001D01*
X0145609Y0011146D01*
X0145549Y0011292D01*
X0145493Y0011440D01*
X0145440Y0011589D01*
X0145391Y0011740D01*
X0145346Y0011892D01*
X0145305Y0012045D01*
X0145267Y0012198D01*
X0145234Y0012353D01*
X0145204Y0012509D01*
X0145178Y0012665D01*
X0145157Y0012822D01*
X0145139Y0012979D01*
X0145125Y0013137D01*
X0145115Y0013295D01*
X0145109Y0013453D01*
X0145107Y0013611D01*
X0151406Y0003768D02*
X0151644Y0003771D01*
X0151882Y0003779D01*
X0152119Y0003794D01*
X0152356Y0003814D01*
X0152592Y0003840D01*
X0152828Y0003871D01*
X0153063Y0003908D01*
X0153297Y0003951D01*
X0153530Y0004000D01*
X0153762Y0004054D01*
X0153992Y0004114D01*
X0154221Y0004179D01*
X0154448Y0004250D01*
X0154673Y0004326D01*
X0154896Y0004408D01*
X0155118Y0004495D01*
X0155337Y0004587D01*
X0155554Y0004685D01*
X0155768Y0004787D01*
X0155980Y0004895D01*
X0156190Y0005009D01*
X0156396Y0005127D01*
X0156600Y0005250D01*
X0156800Y0005378D01*
X0156997Y0005510D01*
X0157192Y0005648D01*
X0157382Y0005790D01*
X0157570Y0005937D01*
X0157753Y0006088D01*
X0157933Y0006243D01*
X0158109Y0006403D01*
X0158281Y0006567D01*
X0158450Y0006736D01*
X0158614Y0006908D01*
X0158774Y0007084D01*
X0158929Y0007264D01*
X0159080Y0007447D01*
X0159227Y0007635D01*
X0159369Y0007825D01*
X0159507Y0008020D01*
X0159639Y0008217D01*
X0159767Y0008417D01*
X0159890Y0008621D01*
X0160008Y0008827D01*
X0160122Y0009037D01*
X0160230Y0009249D01*
X0160332Y0009463D01*
X0160430Y0009680D01*
X0160522Y0009899D01*
X0160609Y0010121D01*
X0160691Y0010344D01*
X0160767Y0010569D01*
X0160838Y0010796D01*
X0160903Y0011025D01*
X0160963Y0011255D01*
X0161017Y0011487D01*
X0161066Y0011720D01*
X0161109Y0011954D01*
X0161146Y0012189D01*
X0161177Y0012425D01*
X0161203Y0012661D01*
X0161223Y0012898D01*
X0161238Y0013135D01*
X0161246Y0013373D01*
X0161249Y0013611D01*
X0161249Y0096288D01*
X0145107Y0096288D02*
X0145109Y0096446D01*
X0145115Y0096604D01*
X0145125Y0096762D01*
X0145139Y0096920D01*
X0145157Y0097077D01*
X0145178Y0097234D01*
X0145204Y0097390D01*
X0145234Y0097546D01*
X0145267Y0097701D01*
X0145305Y0097854D01*
X0145346Y0098007D01*
X0145391Y0098159D01*
X0145440Y0098310D01*
X0145493Y0098459D01*
X0145549Y0098607D01*
X0145609Y0098753D01*
X0145673Y0098898D01*
X0145741Y0099041D01*
X0145812Y0099183D01*
X0145886Y0099323D01*
X0145964Y0099460D01*
X0146046Y0099596D01*
X0146130Y0099730D01*
X0146219Y0099861D01*
X0146310Y0099990D01*
X0146405Y0100117D01*
X0146502Y0100242D01*
X0146603Y0100364D01*
X0146707Y0100483D01*
X0146814Y0100600D01*
X0146924Y0100714D01*
X0147037Y0100825D01*
X0147152Y0100934D01*
X0147270Y0101039D01*
X0147391Y0101141D01*
X0147514Y0101241D01*
X0147640Y0101337D01*
X0147768Y0101430D01*
X0147898Y0101520D01*
X0148031Y0101606D01*
X0148166Y0101690D01*
X0148302Y0101769D01*
X0148441Y0101846D01*
X0148582Y0101918D01*
X0148724Y0101988D01*
X0148868Y0102053D01*
X0149014Y0102115D01*
X0149161Y0102173D01*
X0149310Y0102228D01*
X0149460Y0102279D01*
X0149611Y0102326D01*
X0149763Y0102369D01*
X0149916Y0102408D01*
X0150071Y0102444D01*
X0150226Y0102475D01*
X0150382Y0102503D01*
X0150538Y0102527D01*
X0150695Y0102547D01*
X0150853Y0102563D01*
X0151010Y0102575D01*
X0151169Y0102583D01*
X0151327Y0102587D01*
X0151485Y0102587D01*
X0151643Y0102583D01*
X0151802Y0102575D01*
X0151959Y0102563D01*
X0152117Y0102547D01*
X0152274Y0102527D01*
X0152430Y0102503D01*
X0152586Y0102475D01*
X0152741Y0102444D01*
X0152896Y0102408D01*
X0153049Y0102369D01*
X0153201Y0102326D01*
X0153352Y0102279D01*
X0153502Y0102228D01*
X0153651Y0102173D01*
X0153798Y0102115D01*
X0153944Y0102053D01*
X0154088Y0101988D01*
X0154230Y0101918D01*
X0154371Y0101846D01*
X0154510Y0101769D01*
X0154646Y0101690D01*
X0154781Y0101606D01*
X0154914Y0101520D01*
X0155044Y0101430D01*
X0155172Y0101337D01*
X0155298Y0101241D01*
X0155421Y0101141D01*
X0155542Y0101039D01*
X0155660Y0100934D01*
X0155775Y0100825D01*
X0155888Y0100714D01*
X0155998Y0100600D01*
X0156105Y0100483D01*
X0156209Y0100364D01*
X0156310Y0100242D01*
X0156407Y0100117D01*
X0156502Y0099990D01*
X0156593Y0099861D01*
X0156682Y0099730D01*
X0156766Y0099596D01*
X0156848Y0099460D01*
X0156926Y0099323D01*
X0157000Y0099183D01*
X0157071Y0099041D01*
X0157139Y0098898D01*
X0157203Y0098753D01*
X0157263Y0098607D01*
X0157319Y0098459D01*
X0157372Y0098310D01*
X0157421Y0098159D01*
X0157466Y0098007D01*
X0157507Y0097854D01*
X0157545Y0097701D01*
X0157578Y0097546D01*
X0157608Y0097390D01*
X0157634Y0097234D01*
X0157655Y0097077D01*
X0157673Y0096920D01*
X0157687Y0096762D01*
X0157697Y0096604D01*
X0157703Y0096446D01*
X0157705Y0096288D01*
X0157703Y0096130D01*
X0157697Y0095972D01*
X0157687Y0095814D01*
X0157673Y0095656D01*
X0157655Y0095499D01*
X0157634Y0095342D01*
X0157608Y0095186D01*
X0157578Y0095030D01*
X0157545Y0094875D01*
X0157507Y0094722D01*
X0157466Y0094569D01*
X0157421Y0094417D01*
X0157372Y0094266D01*
X0157319Y0094117D01*
X0157263Y0093969D01*
X0157203Y0093823D01*
X0157139Y0093678D01*
X0157071Y0093535D01*
X0157000Y0093393D01*
X0156926Y0093253D01*
X0156848Y0093116D01*
X0156766Y0092980D01*
X0156682Y0092846D01*
X0156593Y0092715D01*
X0156502Y0092586D01*
X0156407Y0092459D01*
X0156310Y0092334D01*
X0156209Y0092212D01*
X0156105Y0092093D01*
X0155998Y0091976D01*
X0155888Y0091862D01*
X0155775Y0091751D01*
X0155660Y0091642D01*
X0155542Y0091537D01*
X0155421Y0091435D01*
X0155298Y0091335D01*
X0155172Y0091239D01*
X0155044Y0091146D01*
X0154914Y0091056D01*
X0154781Y0090970D01*
X0154646Y0090886D01*
X0154510Y0090807D01*
X0154371Y0090730D01*
X0154230Y0090658D01*
X0154088Y0090588D01*
X0153944Y0090523D01*
X0153798Y0090461D01*
X0153651Y0090403D01*
X0153502Y0090348D01*
X0153352Y0090297D01*
X0153201Y0090250D01*
X0153049Y0090207D01*
X0152896Y0090168D01*
X0152741Y0090132D01*
X0152586Y0090101D01*
X0152430Y0090073D01*
X0152274Y0090049D01*
X0152117Y0090029D01*
X0151959Y0090013D01*
X0151802Y0090001D01*
X0151643Y0089993D01*
X0151485Y0089989D01*
X0151327Y0089989D01*
X0151169Y0089993D01*
X0151010Y0090001D01*
X0150853Y0090013D01*
X0150695Y0090029D01*
X0150538Y0090049D01*
X0150382Y0090073D01*
X0150226Y0090101D01*
X0150071Y0090132D01*
X0149916Y0090168D01*
X0149763Y0090207D01*
X0149611Y0090250D01*
X0149460Y0090297D01*
X0149310Y0090348D01*
X0149161Y0090403D01*
X0149014Y0090461D01*
X0148868Y0090523D01*
X0148724Y0090588D01*
X0148582Y0090658D01*
X0148441Y0090730D01*
X0148302Y0090807D01*
X0148166Y0090886D01*
X0148031Y0090970D01*
X0147898Y0091056D01*
X0147768Y0091146D01*
X0147640Y0091239D01*
X0147514Y0091335D01*
X0147391Y0091435D01*
X0147270Y0091537D01*
X0147152Y0091642D01*
X0147037Y0091751D01*
X0146924Y0091862D01*
X0146814Y0091976D01*
X0146707Y0092093D01*
X0146603Y0092212D01*
X0146502Y0092334D01*
X0146405Y0092459D01*
X0146310Y0092586D01*
X0146219Y0092715D01*
X0146130Y0092846D01*
X0146046Y0092980D01*
X0145964Y0093116D01*
X0145886Y0093253D01*
X0145812Y0093393D01*
X0145741Y0093535D01*
X0145673Y0093678D01*
X0145609Y0093823D01*
X0145549Y0093969D01*
X0145493Y0094117D01*
X0145440Y0094266D01*
X0145391Y0094417D01*
X0145346Y0094569D01*
X0145305Y0094722D01*
X0145267Y0094875D01*
X0145234Y0095030D01*
X0145204Y0095186D01*
X0145178Y0095342D01*
X0145157Y0095499D01*
X0145139Y0095656D01*
X0145125Y0095814D01*
X0145115Y0095972D01*
X0145109Y0096130D01*
X0145107Y0096288D01*
X0151406Y0106131D02*
X0151644Y0106128D01*
X0151882Y0106120D01*
X0152119Y0106105D01*
X0152356Y0106085D01*
X0152592Y0106059D01*
X0152828Y0106028D01*
X0153063Y0105991D01*
X0153297Y0105948D01*
X0153530Y0105899D01*
X0153762Y0105845D01*
X0153992Y0105785D01*
X0154221Y0105720D01*
X0154448Y0105649D01*
X0154673Y0105573D01*
X0154896Y0105491D01*
X0155118Y0105404D01*
X0155337Y0105312D01*
X0155554Y0105214D01*
X0155768Y0105112D01*
X0155980Y0105004D01*
X0156190Y0104890D01*
X0156396Y0104772D01*
X0156600Y0104649D01*
X0156800Y0104521D01*
X0156997Y0104389D01*
X0157192Y0104251D01*
X0157382Y0104109D01*
X0157570Y0103962D01*
X0157753Y0103811D01*
X0157933Y0103656D01*
X0158109Y0103496D01*
X0158281Y0103332D01*
X0158450Y0103163D01*
X0158614Y0102991D01*
X0158774Y0102815D01*
X0158929Y0102635D01*
X0159080Y0102452D01*
X0159227Y0102264D01*
X0159369Y0102074D01*
X0159507Y0101879D01*
X0159639Y0101682D01*
X0159767Y0101482D01*
X0159890Y0101278D01*
X0160008Y0101072D01*
X0160122Y0100862D01*
X0160230Y0100650D01*
X0160332Y0100436D01*
X0160430Y0100219D01*
X0160522Y0100000D01*
X0160609Y0099778D01*
X0160691Y0099555D01*
X0160767Y0099330D01*
X0160838Y0099103D01*
X0160903Y0098874D01*
X0160963Y0098644D01*
X0161017Y0098412D01*
X0161066Y0098179D01*
X0161109Y0097945D01*
X0161146Y0097710D01*
X0161177Y0097474D01*
X0161203Y0097238D01*
X0161223Y0097001D01*
X0161238Y0096764D01*
X0161246Y0096526D01*
X0161249Y0096288D01*
X0151406Y0106131D02*
X0013611Y0106131D01*
X0007312Y0096288D02*
X0007314Y0096446D01*
X0007320Y0096604D01*
X0007330Y0096762D01*
X0007344Y0096920D01*
X0007362Y0097077D01*
X0007383Y0097234D01*
X0007409Y0097390D01*
X0007439Y0097546D01*
X0007472Y0097701D01*
X0007510Y0097854D01*
X0007551Y0098007D01*
X0007596Y0098159D01*
X0007645Y0098310D01*
X0007698Y0098459D01*
X0007754Y0098607D01*
X0007814Y0098753D01*
X0007878Y0098898D01*
X0007946Y0099041D01*
X0008017Y0099183D01*
X0008091Y0099323D01*
X0008169Y0099460D01*
X0008251Y0099596D01*
X0008335Y0099730D01*
X0008424Y0099861D01*
X0008515Y0099990D01*
X0008610Y0100117D01*
X0008707Y0100242D01*
X0008808Y0100364D01*
X0008912Y0100483D01*
X0009019Y0100600D01*
X0009129Y0100714D01*
X0009242Y0100825D01*
X0009357Y0100934D01*
X0009475Y0101039D01*
X0009596Y0101141D01*
X0009719Y0101241D01*
X0009845Y0101337D01*
X0009973Y0101430D01*
X0010103Y0101520D01*
X0010236Y0101606D01*
X0010371Y0101690D01*
X0010507Y0101769D01*
X0010646Y0101846D01*
X0010787Y0101918D01*
X0010929Y0101988D01*
X0011073Y0102053D01*
X0011219Y0102115D01*
X0011366Y0102173D01*
X0011515Y0102228D01*
X0011665Y0102279D01*
X0011816Y0102326D01*
X0011968Y0102369D01*
X0012121Y0102408D01*
X0012276Y0102444D01*
X0012431Y0102475D01*
X0012587Y0102503D01*
X0012743Y0102527D01*
X0012900Y0102547D01*
X0013058Y0102563D01*
X0013215Y0102575D01*
X0013374Y0102583D01*
X0013532Y0102587D01*
X0013690Y0102587D01*
X0013848Y0102583D01*
X0014007Y0102575D01*
X0014164Y0102563D01*
X0014322Y0102547D01*
X0014479Y0102527D01*
X0014635Y0102503D01*
X0014791Y0102475D01*
X0014946Y0102444D01*
X0015101Y0102408D01*
X0015254Y0102369D01*
X0015406Y0102326D01*
X0015557Y0102279D01*
X0015707Y0102228D01*
X0015856Y0102173D01*
X0016003Y0102115D01*
X0016149Y0102053D01*
X0016293Y0101988D01*
X0016435Y0101918D01*
X0016576Y0101846D01*
X0016715Y0101769D01*
X0016851Y0101690D01*
X0016986Y0101606D01*
X0017119Y0101520D01*
X0017249Y0101430D01*
X0017377Y0101337D01*
X0017503Y0101241D01*
X0017626Y0101141D01*
X0017747Y0101039D01*
X0017865Y0100934D01*
X0017980Y0100825D01*
X0018093Y0100714D01*
X0018203Y0100600D01*
X0018310Y0100483D01*
X0018414Y0100364D01*
X0018515Y0100242D01*
X0018612Y0100117D01*
X0018707Y0099990D01*
X0018798Y0099861D01*
X0018887Y0099730D01*
X0018971Y0099596D01*
X0019053Y0099460D01*
X0019131Y0099323D01*
X0019205Y0099183D01*
X0019276Y0099041D01*
X0019344Y0098898D01*
X0019408Y0098753D01*
X0019468Y0098607D01*
X0019524Y0098459D01*
X0019577Y0098310D01*
X0019626Y0098159D01*
X0019671Y0098007D01*
X0019712Y0097854D01*
X0019750Y0097701D01*
X0019783Y0097546D01*
X0019813Y0097390D01*
X0019839Y0097234D01*
X0019860Y0097077D01*
X0019878Y0096920D01*
X0019892Y0096762D01*
X0019902Y0096604D01*
X0019908Y0096446D01*
X0019910Y0096288D01*
X0019908Y0096130D01*
X0019902Y0095972D01*
X0019892Y0095814D01*
X0019878Y0095656D01*
X0019860Y0095499D01*
X0019839Y0095342D01*
X0019813Y0095186D01*
X0019783Y0095030D01*
X0019750Y0094875D01*
X0019712Y0094722D01*
X0019671Y0094569D01*
X0019626Y0094417D01*
X0019577Y0094266D01*
X0019524Y0094117D01*
X0019468Y0093969D01*
X0019408Y0093823D01*
X0019344Y0093678D01*
X0019276Y0093535D01*
X0019205Y0093393D01*
X0019131Y0093253D01*
X0019053Y0093116D01*
X0018971Y0092980D01*
X0018887Y0092846D01*
X0018798Y0092715D01*
X0018707Y0092586D01*
X0018612Y0092459D01*
X0018515Y0092334D01*
X0018414Y0092212D01*
X0018310Y0092093D01*
X0018203Y0091976D01*
X0018093Y0091862D01*
X0017980Y0091751D01*
X0017865Y0091642D01*
X0017747Y0091537D01*
X0017626Y0091435D01*
X0017503Y0091335D01*
X0017377Y0091239D01*
X0017249Y0091146D01*
X0017119Y0091056D01*
X0016986Y0090970D01*
X0016851Y0090886D01*
X0016715Y0090807D01*
X0016576Y0090730D01*
X0016435Y0090658D01*
X0016293Y0090588D01*
X0016149Y0090523D01*
X0016003Y0090461D01*
X0015856Y0090403D01*
X0015707Y0090348D01*
X0015557Y0090297D01*
X0015406Y0090250D01*
X0015254Y0090207D01*
X0015101Y0090168D01*
X0014946Y0090132D01*
X0014791Y0090101D01*
X0014635Y0090073D01*
X0014479Y0090049D01*
X0014322Y0090029D01*
X0014164Y0090013D01*
X0014007Y0090001D01*
X0013848Y0089993D01*
X0013690Y0089989D01*
X0013532Y0089989D01*
X0013374Y0089993D01*
X0013215Y0090001D01*
X0013058Y0090013D01*
X0012900Y0090029D01*
X0012743Y0090049D01*
X0012587Y0090073D01*
X0012431Y0090101D01*
X0012276Y0090132D01*
X0012121Y0090168D01*
X0011968Y0090207D01*
X0011816Y0090250D01*
X0011665Y0090297D01*
X0011515Y0090348D01*
X0011366Y0090403D01*
X0011219Y0090461D01*
X0011073Y0090523D01*
X0010929Y0090588D01*
X0010787Y0090658D01*
X0010646Y0090730D01*
X0010507Y0090807D01*
X0010371Y0090886D01*
X0010236Y0090970D01*
X0010103Y0091056D01*
X0009973Y0091146D01*
X0009845Y0091239D01*
X0009719Y0091335D01*
X0009596Y0091435D01*
X0009475Y0091537D01*
X0009357Y0091642D01*
X0009242Y0091751D01*
X0009129Y0091862D01*
X0009019Y0091976D01*
X0008912Y0092093D01*
X0008808Y0092212D01*
X0008707Y0092334D01*
X0008610Y0092459D01*
X0008515Y0092586D01*
X0008424Y0092715D01*
X0008335Y0092846D01*
X0008251Y0092980D01*
X0008169Y0093116D01*
X0008091Y0093253D01*
X0008017Y0093393D01*
X0007946Y0093535D01*
X0007878Y0093678D01*
X0007814Y0093823D01*
X0007754Y0093969D01*
X0007698Y0094117D01*
X0007645Y0094266D01*
X0007596Y0094417D01*
X0007551Y0094569D01*
X0007510Y0094722D01*
X0007472Y0094875D01*
X0007439Y0095030D01*
X0007409Y0095186D01*
X0007383Y0095342D01*
X0007362Y0095499D01*
X0007344Y0095656D01*
X0007330Y0095814D01*
X0007320Y0095972D01*
X0007314Y0096130D01*
X0007312Y0096288D01*
X0003769Y0096288D02*
X0003769Y0013611D01*
X0007312Y0013611D02*
X0007314Y0013769D01*
X0007320Y0013927D01*
X0007330Y0014085D01*
X0007344Y0014243D01*
X0007362Y0014400D01*
X0007383Y0014557D01*
X0007409Y0014713D01*
X0007439Y0014869D01*
X0007472Y0015024D01*
X0007510Y0015177D01*
X0007551Y0015330D01*
X0007596Y0015482D01*
X0007645Y0015633D01*
X0007698Y0015782D01*
X0007754Y0015930D01*
X0007814Y0016076D01*
X0007878Y0016221D01*
X0007946Y0016364D01*
X0008017Y0016506D01*
X0008091Y0016646D01*
X0008169Y0016783D01*
X0008251Y0016919D01*
X0008335Y0017053D01*
X0008424Y0017184D01*
X0008515Y0017313D01*
X0008610Y0017440D01*
X0008707Y0017565D01*
X0008808Y0017687D01*
X0008912Y0017806D01*
X0009019Y0017923D01*
X0009129Y0018037D01*
X0009242Y0018148D01*
X0009357Y0018257D01*
X0009475Y0018362D01*
X0009596Y0018464D01*
X0009719Y0018564D01*
X0009845Y0018660D01*
X0009973Y0018753D01*
X0010103Y0018843D01*
X0010236Y0018929D01*
X0010371Y0019013D01*
X0010507Y0019092D01*
X0010646Y0019169D01*
X0010787Y0019241D01*
X0010929Y0019311D01*
X0011073Y0019376D01*
X0011219Y0019438D01*
X0011366Y0019496D01*
X0011515Y0019551D01*
X0011665Y0019602D01*
X0011816Y0019649D01*
X0011968Y0019692D01*
X0012121Y0019731D01*
X0012276Y0019767D01*
X0012431Y0019798D01*
X0012587Y0019826D01*
X0012743Y0019850D01*
X0012900Y0019870D01*
X0013058Y0019886D01*
X0013215Y0019898D01*
X0013374Y0019906D01*
X0013532Y0019910D01*
X0013690Y0019910D01*
X0013848Y0019906D01*
X0014007Y0019898D01*
X0014164Y0019886D01*
X0014322Y0019870D01*
X0014479Y0019850D01*
X0014635Y0019826D01*
X0014791Y0019798D01*
X0014946Y0019767D01*
X0015101Y0019731D01*
X0015254Y0019692D01*
X0015406Y0019649D01*
X0015557Y0019602D01*
X0015707Y0019551D01*
X0015856Y0019496D01*
X0016003Y0019438D01*
X0016149Y0019376D01*
X0016293Y0019311D01*
X0016435Y0019241D01*
X0016576Y0019169D01*
X0016715Y0019092D01*
X0016851Y0019013D01*
X0016986Y0018929D01*
X0017119Y0018843D01*
X0017249Y0018753D01*
X0017377Y0018660D01*
X0017503Y0018564D01*
X0017626Y0018464D01*
X0017747Y0018362D01*
X0017865Y0018257D01*
X0017980Y0018148D01*
X0018093Y0018037D01*
X0018203Y0017923D01*
X0018310Y0017806D01*
X0018414Y0017687D01*
X0018515Y0017565D01*
X0018612Y0017440D01*
X0018707Y0017313D01*
X0018798Y0017184D01*
X0018887Y0017053D01*
X0018971Y0016919D01*
X0019053Y0016783D01*
X0019131Y0016646D01*
X0019205Y0016506D01*
X0019276Y0016364D01*
X0019344Y0016221D01*
X0019408Y0016076D01*
X0019468Y0015930D01*
X0019524Y0015782D01*
X0019577Y0015633D01*
X0019626Y0015482D01*
X0019671Y0015330D01*
X0019712Y0015177D01*
X0019750Y0015024D01*
X0019783Y0014869D01*
X0019813Y0014713D01*
X0019839Y0014557D01*
X0019860Y0014400D01*
X0019878Y0014243D01*
X0019892Y0014085D01*
X0019902Y0013927D01*
X0019908Y0013769D01*
X0019910Y0013611D01*
X0019908Y0013453D01*
X0019902Y0013295D01*
X0019892Y0013137D01*
X0019878Y0012979D01*
X0019860Y0012822D01*
X0019839Y0012665D01*
X0019813Y0012509D01*
X0019783Y0012353D01*
X0019750Y0012198D01*
X0019712Y0012045D01*
X0019671Y0011892D01*
X0019626Y0011740D01*
X0019577Y0011589D01*
X0019524Y0011440D01*
X0019468Y0011292D01*
X0019408Y0011146D01*
X0019344Y0011001D01*
X0019276Y0010858D01*
X0019205Y0010716D01*
X0019131Y0010576D01*
X0019053Y0010439D01*
X0018971Y0010303D01*
X0018887Y0010169D01*
X0018798Y0010038D01*
X0018707Y0009909D01*
X0018612Y0009782D01*
X0018515Y0009657D01*
X0018414Y0009535D01*
X0018310Y0009416D01*
X0018203Y0009299D01*
X0018093Y0009185D01*
X0017980Y0009074D01*
X0017865Y0008965D01*
X0017747Y0008860D01*
X0017626Y0008758D01*
X0017503Y0008658D01*
X0017377Y0008562D01*
X0017249Y0008469D01*
X0017119Y0008379D01*
X0016986Y0008293D01*
X0016851Y0008209D01*
X0016715Y0008130D01*
X0016576Y0008053D01*
X0016435Y0007981D01*
X0016293Y0007911D01*
X0016149Y0007846D01*
X0016003Y0007784D01*
X0015856Y0007726D01*
X0015707Y0007671D01*
X0015557Y0007620D01*
X0015406Y0007573D01*
X0015254Y0007530D01*
X0015101Y0007491D01*
X0014946Y0007455D01*
X0014791Y0007424D01*
X0014635Y0007396D01*
X0014479Y0007372D01*
X0014322Y0007352D01*
X0014164Y0007336D01*
X0014007Y0007324D01*
X0013848Y0007316D01*
X0013690Y0007312D01*
X0013532Y0007312D01*
X0013374Y0007316D01*
X0013215Y0007324D01*
X0013058Y0007336D01*
X0012900Y0007352D01*
X0012743Y0007372D01*
X0012587Y0007396D01*
X0012431Y0007424D01*
X0012276Y0007455D01*
X0012121Y0007491D01*
X0011968Y0007530D01*
X0011816Y0007573D01*
X0011665Y0007620D01*
X0011515Y0007671D01*
X0011366Y0007726D01*
X0011219Y0007784D01*
X0011073Y0007846D01*
X0010929Y0007911D01*
X0010787Y0007981D01*
X0010646Y0008053D01*
X0010507Y0008130D01*
X0010371Y0008209D01*
X0010236Y0008293D01*
X0010103Y0008379D01*
X0009973Y0008469D01*
X0009845Y0008562D01*
X0009719Y0008658D01*
X0009596Y0008758D01*
X0009475Y0008860D01*
X0009357Y0008965D01*
X0009242Y0009074D01*
X0009129Y0009185D01*
X0009019Y0009299D01*
X0008912Y0009416D01*
X0008808Y0009535D01*
X0008707Y0009657D01*
X0008610Y0009782D01*
X0008515Y0009909D01*
X0008424Y0010038D01*
X0008335Y0010169D01*
X0008251Y0010303D01*
X0008169Y0010439D01*
X0008091Y0010576D01*
X0008017Y0010716D01*
X0007946Y0010858D01*
X0007878Y0011001D01*
X0007814Y0011146D01*
X0007754Y0011292D01*
X0007698Y0011440D01*
X0007645Y0011589D01*
X0007596Y0011740D01*
X0007551Y0011892D01*
X0007510Y0012045D01*
X0007472Y0012198D01*
X0007439Y0012353D01*
X0007409Y0012509D01*
X0007383Y0012665D01*
X0007362Y0012822D01*
X0007344Y0012979D01*
X0007330Y0013137D01*
X0007320Y0013295D01*
X0007314Y0013453D01*
X0007312Y0013611D01*
X0003768Y0013611D02*
X0003771Y0013373D01*
X0003779Y0013135D01*
X0003794Y0012898D01*
X0003814Y0012661D01*
X0003840Y0012425D01*
X0003871Y0012189D01*
X0003908Y0011954D01*
X0003951Y0011720D01*
X0004000Y0011487D01*
X0004054Y0011255D01*
X0004114Y0011025D01*
X0004179Y0010796D01*
X0004250Y0010569D01*
X0004326Y0010344D01*
X0004408Y0010121D01*
X0004495Y0009899D01*
X0004587Y0009680D01*
X0004685Y0009463D01*
X0004787Y0009249D01*
X0004895Y0009037D01*
X0005009Y0008827D01*
X0005127Y0008621D01*
X0005250Y0008417D01*
X0005378Y0008217D01*
X0005510Y0008020D01*
X0005648Y0007825D01*
X0005790Y0007635D01*
X0005937Y0007447D01*
X0006088Y0007264D01*
X0006243Y0007084D01*
X0006403Y0006908D01*
X0006567Y0006736D01*
X0006736Y0006567D01*
X0006908Y0006403D01*
X0007084Y0006243D01*
X0007264Y0006088D01*
X0007447Y0005937D01*
X0007635Y0005790D01*
X0007825Y0005648D01*
X0008020Y0005510D01*
X0008217Y0005378D01*
X0008417Y0005250D01*
X0008621Y0005127D01*
X0008827Y0005009D01*
X0009037Y0004895D01*
X0009249Y0004787D01*
X0009463Y0004685D01*
X0009680Y0004587D01*
X0009899Y0004495D01*
X0010121Y0004408D01*
X0010344Y0004326D01*
X0010569Y0004250D01*
X0010796Y0004179D01*
X0011025Y0004114D01*
X0011255Y0004054D01*
X0011487Y0004000D01*
X0011720Y0003951D01*
X0011954Y0003908D01*
X0012189Y0003871D01*
X0012425Y0003840D01*
X0012661Y0003814D01*
X0012898Y0003794D01*
X0013135Y0003779D01*
X0013373Y0003771D01*
X0013611Y0003768D01*
X0003768Y0096288D02*
X0003771Y0096526D01*
X0003779Y0096764D01*
X0003794Y0097001D01*
X0003814Y0097238D01*
X0003840Y0097474D01*
X0003871Y0097710D01*
X0003908Y0097945D01*
X0003951Y0098179D01*
X0004000Y0098412D01*
X0004054Y0098644D01*
X0004114Y0098874D01*
X0004179Y0099103D01*
X0004250Y0099330D01*
X0004326Y0099555D01*
X0004408Y0099778D01*
X0004495Y0100000D01*
X0004587Y0100219D01*
X0004685Y0100436D01*
X0004787Y0100650D01*
X0004895Y0100862D01*
X0005009Y0101072D01*
X0005127Y0101278D01*
X0005250Y0101482D01*
X0005378Y0101682D01*
X0005510Y0101879D01*
X0005648Y0102074D01*
X0005790Y0102264D01*
X0005937Y0102452D01*
X0006088Y0102635D01*
X0006243Y0102815D01*
X0006403Y0102991D01*
X0006567Y0103163D01*
X0006736Y0103332D01*
X0006908Y0103496D01*
X0007084Y0103656D01*
X0007264Y0103811D01*
X0007447Y0103962D01*
X0007635Y0104109D01*
X0007825Y0104251D01*
X0008020Y0104389D01*
X0008217Y0104521D01*
X0008417Y0104649D01*
X0008621Y0104772D01*
X0008827Y0104890D01*
X0009037Y0105004D01*
X0009249Y0105112D01*
X0009463Y0105214D01*
X0009680Y0105312D01*
X0009899Y0105404D01*
X0010121Y0105491D01*
X0010344Y0105573D01*
X0010569Y0105649D01*
X0010796Y0105720D01*
X0011025Y0105785D01*
X0011255Y0105845D01*
X0011487Y0105899D01*
X0011720Y0105948D01*
X0011954Y0105991D01*
X0012189Y0106028D01*
X0012425Y0106059D01*
X0012661Y0106085D01*
X0012898Y0106105D01*
X0013135Y0106120D01*
X0013373Y0106128D01*
X0013611Y0106131D01*
D11*
X0018631Y0031032D02*
X0021583Y0031032D01*
X0021583Y0027686D01*
X0018631Y0027686D01*
X0018631Y0031032D01*
X0018631Y0028621D02*
X0021583Y0028621D01*
X0021583Y0029556D02*
X0018631Y0029556D01*
X0018631Y0030491D02*
X0021583Y0030491D01*
X0025324Y0031032D02*
X0028276Y0031032D01*
X0028276Y0027686D01*
X0025324Y0027686D01*
X0025324Y0031032D01*
X0025324Y0028621D02*
X0028276Y0028621D01*
X0028276Y0029556D02*
X0025324Y0029556D01*
X0025324Y0030491D02*
X0028276Y0030491D01*
X0148552Y0074930D02*
X0151504Y0074930D01*
X0148552Y0074930D02*
X0148552Y0078276D01*
X0151504Y0078276D01*
X0151504Y0074930D01*
X0151504Y0075865D02*
X0148552Y0075865D01*
X0148552Y0076800D02*
X0151504Y0076800D01*
X0151504Y0077735D02*
X0148552Y0077735D01*
X0155245Y0074930D02*
X0158197Y0074930D01*
X0155245Y0074930D02*
X0155245Y0078276D01*
X0158197Y0078276D01*
X0158197Y0074930D01*
X0158197Y0075865D02*
X0155245Y0075865D01*
X0155245Y0076800D02*
X0158197Y0076800D01*
X0158197Y0077735D02*
X0155245Y0077735D01*
D12*
X0139595Y0061446D03*
X0139595Y0032706D03*
X0025422Y0044517D03*
X0025422Y0073257D03*
D13*
X0121248Y0075383D02*
X0128808Y0075383D01*
X0121248Y0075383D02*
X0121248Y0081761D01*
X0128808Y0081761D01*
X0128808Y0075383D01*
X0128808Y0076057D02*
X0121248Y0076057D01*
X0121248Y0076731D02*
X0128808Y0076731D01*
X0128808Y0077405D02*
X0121248Y0077405D01*
X0121248Y0078079D02*
X0128808Y0078079D01*
X0128808Y0078753D02*
X0121248Y0078753D01*
X0121248Y0079427D02*
X0128808Y0079427D01*
X0128808Y0080101D02*
X0121248Y0080101D01*
X0121248Y0080775D02*
X0128808Y0080775D01*
X0128808Y0081449D02*
X0121248Y0081449D01*
X0138571Y0075383D02*
X0146131Y0075383D01*
X0138571Y0075383D02*
X0138571Y0081761D01*
X0146131Y0081761D01*
X0146131Y0075383D01*
X0146131Y0076057D02*
X0138571Y0076057D01*
X0138571Y0076731D02*
X0146131Y0076731D01*
X0146131Y0077405D02*
X0138571Y0077405D01*
X0138571Y0078079D02*
X0146131Y0078079D01*
X0146131Y0078753D02*
X0138571Y0078753D01*
X0138571Y0079427D02*
X0146131Y0079427D01*
X0146131Y0080101D02*
X0138571Y0080101D01*
X0138571Y0080775D02*
X0146131Y0080775D01*
X0146131Y0081449D02*
X0138571Y0081449D01*
D14*
X0094320Y0074438D03*
X0094320Y0035461D03*
D15*
X0126991Y0023540D02*
X0126991Y0018816D01*
X0126991Y0023540D02*
X0132515Y0023540D01*
X0132515Y0018816D01*
X0126991Y0018816D01*
X0126991Y0020312D02*
X0132515Y0020312D01*
X0132515Y0021808D02*
X0126991Y0021808D01*
X0126991Y0023304D02*
X0132515Y0023304D01*
X0126991Y0012343D02*
X0126991Y0007619D01*
X0126991Y0012343D02*
X0132515Y0012343D01*
X0132515Y0007619D01*
X0126991Y0007619D01*
X0126991Y0009115D02*
X0132515Y0009115D01*
X0132515Y0010611D02*
X0126991Y0010611D01*
X0126991Y0012107D02*
X0132515Y0012107D01*
D16*
X0064418Y0039753D03*
X0059418Y0039753D03*
X0054418Y0039753D03*
X0049418Y0039753D03*
X0049418Y0062272D03*
X0054418Y0062272D03*
X0059418Y0062272D03*
X0064418Y0062272D03*
D17*
X0060855Y0094320D03*
X0078572Y0094320D03*
X0096288Y0094320D03*
X0114005Y0094320D03*
X0039202Y0094320D03*
X0039202Y0015580D03*
X0060855Y0015580D03*
X0078572Y0015580D03*
X0096288Y0015580D03*
X0114005Y0015580D03*
M02*
